<?xml version="1.0" encoding="UTF-8" standalone="no"?>
<!-- Created with Inkscape (http://www.inkscape.org/) -->

<svg
   width="180"
   height="180"
   viewBox="0 0 180 180"
   version="1.1"
   id="svg1"
   xml:space="preserve"
   xmlns:xlink="http://www.w3.org/1999/xlink"
   xmlns="http://www.w3.org/2000/svg"
   xmlns:svg="http://www.w3.org/2000/svg"><defs
     id="defs1"><linearGradient
       id="linearGradient1"><stop
         style="stop-color:#d8b239;stop-opacity:1;"
         offset="0"
         id="stop1" /><stop
         style="stop-color:#7e2a78;stop-opacity:1;"
         offset="1"
         id="stop2" /></linearGradient><linearGradient
       xlink:href="#linearGradient1"
       id="linearGradient2"
       x1="41.81926"
       y1="56.823689"
       x2="138.18073"
       y2="121.31596"
       gradientUnits="userSpaceOnUse" /></defs><g
     id="layer1"><path
       style="fill:url(#linearGradient2);stroke-width:1.37856"
       d="M 94.148055,175.86931 C 83.349938,163.62064 79.72504,152.66318 81.894467,138.82884 c 1.321723,-8.4285 5.434191,-17.74462 8.62017,-19.52758 1.127649,-0.63107 2.189362,-3.78163 2.463888,-7.31138 0.456883,-5.87431 0.538728,-5.98366 1.547159,-2.06679 2.180153,8.46806 7.796006,18.45434 12.213896,21.71913 2.50757,1.85307 8.09088,5.34895 12.40736,7.76863 7.61271,4.26743 7.89185,4.31772 9.30529,1.6767 2.05702,-3.84359 1.81354,-6.40627 -0.81604,-8.58862 -1.25026,-1.03762 -6.45286,-10.66637 -11.56137,-21.39724 C 100.40002,78.175376 78.677389,48.103241 52.430966,22.995106 41.874222,12.896205 39.648659,10.230133 43.749313,12.595057 c 24.983702,14.40856 48.134842,38.199762 67.231107,69.089839 7.35878,11.903562 27.20031,52.794014 27.20031,56.055814 0,3.52887 -5.16738,10.87077 -8.82354,12.53663 -2.9961,1.36511 -4.54843,0.75064 -13.76152,-5.44727 -12.9889,-8.73802 -15.39719,-8.39152 -13.73068,1.97558 1.62866,10.13156 1.41214,30.16871 -0.35874,33.19934 -1.34155,2.29587 -2.02883,1.90958 -7.358195,-4.13568 z M 57.464588,145.80995 c -4.808724,-11.50889 -0.869417,-25.74378 10.541222,-38.09115 4.965342,-5.37299 5.407226,-6.38251 3.862507,-8.824205 -3.94642,-6.237989 -5.78713,-11.01096 -6.423391,-16.655748 -1.003716,-8.904979 -0.119107,-10.199668 6.022465,-8.814513 8.348592,1.882914 15.593827,8.590825 17.832058,16.50961 l 0.974133,3.446407 -3.273007,-2.940512 c -1.800139,-1.61728 -5.289139,-3.959532 -7.753317,-5.205005 -4.020559,-2.03212 -4.480323,-2.043032 -4.480323,-0.106329 0,3.356437 4.866844,12.033694 8.817634,15.721275 l 3.5717,3.33375 -6.693189,3.82264 c -12.833741,7.32966 -19.665545,18.71206 -19.887796,33.13487 -0.0801,5.19727 -0.36332,9.4496 -0.62941,9.4496 -0.26609,0 -1.382669,-2.15132 -2.481286,-4.78069 z m 51.302052,-32.42451 c -2.08157,-2.47381 -3.4302,-4.85231 -2.99696,-5.28556 1.24389,-1.24388 7.99047,6.15695 7.35379,8.06696 -0.34901,1.04703 -2.04817,-0.0378 -4.35683,-2.7814 z m 14.24992,-14.629708 c 0,-0.708208 -4.11361,-8.100741 -9.14136,-16.427848 C 108.84745,74.000776 101.02808,60.363811 96.498832,52.023517 86.565832,33.732636 75.448054,16.731176 65.98138,5.3558128 60.149612,-1.6517587 59.695707,-2.5512091 63.278545,0 70.387895,5.0623048 86.7963,23.434609 94.208353,34.631752 105.76371,52.088065 126.2038,96.856158 123.7424,99.317551 c -0.3992,0.399218 -0.72584,0.14639 -0.72584,-0.561819 z"
       id="path1" /></g></svg>
