<?xml version="1.0" encoding="UTF-8" standalone="no"?>

<svg
   width="88.611755"
   height="105.89462"
   viewBox="0 0 88.611755 105.89462"
   version="1.1"
   id="svg1"
   xml:space="preserve"
   inkscape:export-filename="MIAPin.svg"
   inkscape:export-xdpi="96"
   inkscape:export-ydpi="96"
   xmlns:inkscape="http://www.inkscape.org/namespaces/inkscape"
   xmlns:sodipodi="http://sodipodi.sourceforge.net/DTD/sodipodi-0.dtd"
   xmlns:xlink="http://www.w3.org/1999/xlink"
   xmlns="http://www.w3.org/2000/svg"
   xmlns:svg="http://www.w3.org/2000/svg"><sodipodi:namedview
     id="namedview1"
     pagecolor="#ffffff"
     bordercolor="#111111"
     borderopacity="1"
     inkscape:showpageshadow="0"
     inkscape:pageopacity="0"
     inkscape:pagecheckerboard="1"
     inkscape:deskcolor="#d1d1d1"
     inkscape:document-units="px" /><defs
     id="defs1"><linearGradient
       id="linearGradient31"
       inkscape:collect="always"><stop
         style="stop-color:#262626;stop-opacity:1;"
         offset="0"
         id="stop31" /><stop
         style="stop-color:#000000;stop-opacity:0;"
         offset="1"
         id="stop32" /></linearGradient><linearGradient
       inkscape:collect="always"
       xlink:href="#linearGradient31"
       id="linearGradient32"
       x1="60"
       y1="120"
       x2="60"
       y2="74.59671"
       gradientUnits="userSpaceOnUse"
       gradientTransform="matrix(1.2491284,0,0,1.2491284,-14.947702,-29.74924)" /></defs><g
     inkscape:label="Layer 1"
     inkscape:groupmode="layer"
     id="layer1"
     transform="translate(-15.694121,-14.251537)"><path
       style="fill:url(#linearGradient32);stroke:none;stroke-width:3.07264;stroke-linecap:round;stroke-linejoin:round;stroke-dasharray:none;stroke-opacity:1"
       d="M 15.694121,62.68942 60,120.14616 104.30588,64.173824 Z"
       id="path31" /><path
       style="fill:#262626;fill-opacity:1;stroke-width:0.892148"
       d="m 25.285752,55.33363 v -5.866804 l 1.218513,-1.082818 1.218512,-1.082827 0.0019,-5.114586 0.0019,-5.114588 1.152781,-1.771886 1.152781,-1.771885 0.643951,0.07511 c 0.354174,0.04132 1.77182,0.165446 3.150324,0.275855 1.378505,0.110408 2.63105,0.200742 2.783433,0.200742 h 0.277062 l -0.04755,-0.50851 -0.04755,-0.508509 1.652366,-2.098921 1.652365,-2.098921 0.968049,0.03988 c 0.532426,0.02193 1.944386,0.09632 3.137687,0.165293 l 2.16964,0.125416 0.777483,-0.846223 0.777484,-0.846222 0.0022,-5.502829 0.0022,-5.502829 6.235468,-1.123015 6.235468,-1.123016 1.527772,1.326021 c 0.840275,0.72931 2.028873,1.758265 2.64133,2.286566 l 1.113558,0.960546 0.0052,3.675711 0.0052,3.675709 1.254322,0.09091 c 0.689878,0.05 1.544174,0.127638 1.898436,0.172528 l 0.644111,0.08162 v 1.18452 1.18452 l 0.629137,0.08624 c 0.346026,0.04743 0.971492,0.08676 1.389929,0.08741 0.418427,6.49e-4 1.081141,0.03966 1.472696,0.08669 l 0.711917,0.08551 v 1.251865 1.251865 l 0.644104,0.07956 c 0.354264,0.04376 1.376371,0.15019 2.271348,0.236511 l 1.627225,0.15695 -0.03979,2.338907 -0.03979,2.338908 1.192419,0.149605 c 0.655836,0.08228 2.426938,0.284401 3.935793,0.449151 l 2.743375,0.299546 0.03649,2.925507 0.03649,2.925503 0.997922,0.04015 0.99793,0.04015 1.544621,1.088564 1.544613,1.088555 v 3.447886 3.447886 h 1.762832 1.762839 v 4.203651 4.203679 H 83.594837 72.475438 v -5.060189 -5.060185 l -0.147374,-0.797251 c -0.0811,-0.438491 -0.276807,-1.072594 -0.434994,-1.409113 -0.158178,-0.336518 -0.525163,-0.849414 -0.815507,-1.139764 -0.290347,-0.290341 -0.794815,-0.645969 -1.121038,-0.790274 -0.326223,-0.144296 -0.991302,-0.310298 -1.477953,-0.368885 l -0.88482,-0.106523 -0.915316,0.108869 -0.915317,0.108878 -0.737942,0.375755 -0.737943,0.375755 -0.577935,0.708964 -0.577936,0.708972 -0.277451,0.898286 -0.277451,0.898278 v 5.274212 5.274212 H 43.931088 25.285752 Z m 32.654086,4.883683 -0.0417,-0.57631 h -6.915723 -6.915726 l -0.0417,0.57631 -0.0417,0.57631 h 6.99912 6.999119 z m 35.87537,0.428124 c 0.02623,-0.03033 0.08734,-0.314553 0.135919,-0.631525 l 0.08823,-0.57631 h -3.852615 -3.852618 l -0.04934,0.619776 c -0.02712,0.340872 -0.01802,0.653061 0.02025,0.693761 0.03827,0.04068 1.732945,0.04595 3.765991,0.01178 2.033045,-0.03426 3.717894,-0.08707 3.744106,-0.117451 z M 57.965942,58.149376 v -0.610212 h -6.964155 -6.964153 v 0.610212 0.610211 h 6.964153 6.964155 z m 35.867029,0.444477 c 0.01668,-0.0207 0.06343,-0.297005 0.103864,-0.613977 l 0.07351,-0.57631 h -3.838111 -3.838112 l -0.04934,0.619776 c -0.02712,0.340872 -0.01802,0.653918 0.02025,0.695653 0.03827,0.04175 1.74084,0.03916 3.783539,-0.0062 2.042708,-0.04496 3.727645,-0.09863 3.744319,-0.119342 z m -35.893134,-2.512415 0.0417,-0.57631 h -6.969352 -6.969351 l -0.01854,0.493117 c -0.0102,0.271213 0.01437,0.546361 0.0546,0.611443 l 0.07314,0.118343 6.873055,-0.03515 6.873057,-0.03515 z m 35.908193,0.456093 c 0.008,-0.008 0.04836,-0.274719 0.08877,-0.591691 l 0.07351,-0.57631 h -3.838111 -3.838112 l -0.04933,0.619767 c -0.02712,0.340881 -0.02632,0.642775 0.0018,0.670878 0.0281,0.0281 1.737477,0.01543 3.798607,-0.0281 2.06113,-0.04354 3.754365,-0.08609 3.762743,-0.09457 z m 0.05255,-2.381465 c 0,-0.215374 0.03702,-0.488113 0.08235,-0.606081 l 0.08234,-0.214491 h -3.865518 -3.865528 l -0.04933,0.619767 c -0.02712,0.340881 -0.03845,0.630731 -0.02516,0.644113 0.01329,0.01338 1.737923,0.0071 3.832509,-0.01365 l 3.808341,-0.03801 z m -35.934636,-0.2116 v -0.611443 l -6.949625,0.03515 -6.949626,0.03515 -0.01428,0.57631 -0.01428,0.576302 h 6.963909 6.96391 z M 33.299876,52.766464 c 3.535146,-0.0174 7.388619,-0.05201 8.563275,-0.0769 l 2.135738,-0.04532 v -5.689627 -5.689615 l 0.915316,0.07891 c 0.503425,0.0434 3.173098,0.21982 5.932608,0.392043 2.759509,0.172224 5.063057,0.286093 5.118992,0.253041 0.05594,-0.03305 0.101702,-2.649888 0.101702,-5.815194 0,-3.165305 -0.03171,-5.7551 -0.07046,-5.7551 -0.03876,0 -0.76981,0.549189 -1.624571,1.220421 -0.85476,0.671232 -1.585817,1.220422 -1.62457,1.220422 -0.03875,0 -0.07046,-1.227133 -0.07046,-2.726964 v -2.726964 l -1.329004,1.225341 -1.329005,1.22534 0.04644,1.626294 0.04644,1.626294 -0.242957,0.06602 c -0.133627,0.03631 -2.363441,0.298766 -4.955143,0.583237 l -4.712183,0.517219 v 1.77373 1.773728 l -4.779988,0.509884 c -2.628992,0.280437 -4.891458,0.52142 -5.027703,0.535519 l -0.24772,0.02563 0.0047,-1.864534 c 0.0026,-1.025493 -0.02445,-1.864533 -0.06012,-1.864533 -0.03568,0 -0.368747,0.465487 -0.740148,1.034417 l -0.675275,1.034416 v 5.264252 5.264247 l -1.214221,1.057767 -1.21422,1.057767 -0.0062,1.540223 -0.0062,1.540232 0.318685,-0.08003 c 0.175277,-0.04398 3.211077,-0.09423 6.746221,-0.111635 z m 37.137118,-16.821986 -0.0044,-1.525527 -0.626087,-0.429107 -0.626089,-0.429108 -0.58996,0.286625 -0.589961,0.286626 v 1.593738 1.593737 l 0.847515,0.04814 c 0.466133,0.02648 1.015323,0.0599 1.220422,0.07427 l 0.372907,0.02613 z M 67.051306,35.713386 V 34.22797 l -0.631376,-0.482091 -0.631375,-0.48209 -0.555145,0.327579 -0.555147,0.327578 -0.03808,1.639928 -0.03808,1.639927 h 1.224596 1.224596 z m -16.842559,-9.159544 -0.03995,-2.37321 0.224741,1.67e-4 c 0.123605,9.3e-5 1.893217,0.183212 3.932469,0.406931 2.039254,0.22372 3.875541,0.435768 4.080639,0.471219 l 0.372907,0.06446 V 20.36601 15.608615 l -0.305105,0.06982 c -0.167808,0.0384 -2.364568,0.422144 -4.881688,0.852767 l -4.576582,0.782951 v 5.72735 5.727352 l 0.169502,0.06839 c 0.09323,0.03762 0.370542,0.07321 0.616257,0.0791 l 0.446754,0.0107 z"
       id="path32" /></g></svg>
