<?xml version="1.0" encoding="UTF-8" standalone="no"?>

<svg
   width="88.611755"
   height="119.59062"
   viewBox="0 0 88.611755 119.59062"
   version="1.1"
   id="svg1"
   xml:space="preserve"
   inkscape:export-filename="MIAPin.svg"
   inkscape:export-xdpi="96"
   inkscape:export-ydpi="96"
   xmlns:inkscape="http://www.inkscape.org/namespaces/inkscape"
   xmlns:sodipodi="http://sodipodi.sourceforge.net/DTD/sodipodi-0.dtd"
   xmlns:xlink="http://www.w3.org/1999/xlink"
   xmlns="http://www.w3.org/2000/svg"
   xmlns:svg="http://www.w3.org/2000/svg"><sodipodi:namedview
     id="namedview1"
     pagecolor="#ffffff"
     bordercolor="#111111"
     borderopacity="1"
     inkscape:showpageshadow="0"
     inkscape:pageopacity="0"
     inkscape:pagecheckerboard="1"
     inkscape:deskcolor="#d1d1d1"
     inkscape:document-units="px" /><defs
     id="defs1"><linearGradient
       id="linearGradient31"
       inkscape:collect="always"><stop
         style="stop-color:#262626;stop-opacity:1;"
         offset="0"
         id="stop31" /><stop
         style="stop-color:#000000;stop-opacity:0;"
         offset="1"
         id="stop32" /></linearGradient><linearGradient
       inkscape:collect="always"
       xlink:href="#linearGradient31"
       id="linearGradient32"
       x1="60"
       y1="120"
       x2="60"
       y2="74.59671"
       gradientUnits="userSpaceOnUse"
       gradientTransform="matrix(1.2491284,0,0,1.2491284,-14.947702,-29.74924)" /></defs><g
     inkscape:label="Layer 1"
     inkscape:groupmode="layer"
     id="layer1"
     transform="translate(-15.694121,-0.55554074)"><path
       style="fill:url(#linearGradient32);stroke:none;stroke-width:3.07264;stroke-linecap:round;stroke-linejoin:round;stroke-dasharray:none;stroke-opacity:1"
       d="M 15.694121,62.68942 60,120.14616 104.30588,64.173824 Z"
       id="path31" /><path
       style="fill:#262626;fill-opacity:1;stroke-width:0.608352"
       d="m 29.646029,66.526516 c -1.557438,-0.412477 -1.103116,-2.195081 0.642932,-2.522637 l 1.242291,-0.233059 v -4.266487 c 0,-2.831706 0.147299,-4.413795 0.43801,-4.704507 0.301216,-0.301219 2.125168,-0.438009 5.840153,-0.438009 h 5.40214 v -5.097296 c 0,-4.665971 0.05973,-5.129264 0.706024,-5.475143 1.010308,-0.540701 8.52518,-0.49089 9.076231,0.06015 0.318885,0.318885 0.438012,3.098526 0.438012,10.22027 v 9.782251 h 1.452919 1.45292 l 0.09837,-7.938951 0.09837,-7.938962 15.671414,-0.09522 c 12.294945,-0.0747 15.734357,0.004 15.963574,0.365008 0.160689,0.253128 0.294676,3.850232 0.297754,7.993561 l 0.005,7.533327 1.242289,0.23306 c 1.862779,0.349459 2.180754,2.084986 0.466261,2.544808 -0.910911,0.244369 -59.609756,0.222873 -60.534994,-0.02215 z M 77.522448,61.26091 c 0,-4.296576 -1.739611,-6.534087 -5.080093,-6.534087 -3.522371,0 -5.136724,1.97802 -5.138811,6.296421 l -0.0012,2.828814 h 5.110134 5.110131 z M 37.525773,60.840735 c 0.699913,-1.998371 -0.81129,-3.949749 -2.179457,-2.814272 -0.621732,0.515991 -0.696246,2.277834 -0.140273,3.316679 0.554459,1.036021 1.881577,0.74859 2.31973,-0.502407 z m 6.570172,0 c 0.699914,-1.998371 -0.811291,-3.949749 -2.179458,-2.814272 -0.621731,0.515991 -0.696246,2.277834 -0.140273,3.316679 0.55446,1.036021 1.881579,0.74859 2.319731,-0.502407 z m 6.233296,-0.998773 c 0,-1.637373 -0.119678,-2.025607 -0.656302,-2.12895 -1.033272,-0.198991 -1.716259,0.634976 -1.716259,2.095639 0,1.537218 0.578304,2.293021 1.638278,2.141106 0.63369,-0.09083 0.734283,-0.379586 0.734283,-2.107795 z m -0.933665,-9.287277 c 0.595875,-0.717985 0.335391,-3.154151 -0.385507,-3.605438 -1.140502,-0.713964 -1.783409,-0.0416 -1.783409,1.865132 0,0.976618 0.109509,1.88517 0.243341,2.019007 0.418805,0.418805 1.473372,0.26617 1.925575,-0.278701 z m 9.516978,-8.694449 c 0.0031,-1.656231 0.13225,-3.210645 0.287058,-3.454255 0.154806,-0.243608 5.449487,-1.685592 11.765964,-3.204407 6.316477,-1.518814 11.754634,-2.844425 12.084808,-2.945803 0.330168,-0.101376 0.863994,0.07938 1.186279,0.401656 0.48891,0.488912 0.585969,1.549056 0.585969,6.400056 v 5.814081 H 71.864801 58.906965 Z m 14.156778,0.748269 c 0.918911,-0.918912 0.36515,-4.307113 -0.703946,-4.307113 -0.663927,0 -1.413109,1.257856 -1.413109,2.372563 0,1.114705 0.749182,2.372562 1.413109,2.372562 0.146267,0 0.46304,-0.197106 0.703946,-0.438012 z m -8.687225,-11.94246 c 0,-1.790378 0.09191,-3.494719 0.204222,-3.787426 0.112322,-0.292705 3.560059,-1.80587 7.66164,-3.362588 6.152954,-2.335296 7.553811,-2.750392 8.008491,-2.373042 0.433916,0.360122 0.551072,1.364524 0.551072,4.724544 v 4.26719 l -7.938956,1.899787 c -4.366426,1.044881 -8.062146,1.896856 -8.212713,1.893276 -0.150566,-0.0035 -0.273756,-1.471362 -0.273756,-3.261741 z m 8.54787,0.113605 c 0.832757,-0.319558 0.816125,-3.72484 -0.01978,-4.0456 -0.971849,-0.372933 -1.76729,0.412215 -1.890238,1.865783 -0.159673,1.88771 0.552662,2.700674 1.909998,2.179817 z M 68.762221,16.804886 v -5.149185 h 3.832598 3.8326 v 3.751421 3.751422 l -3.376337,1.236991 c -1.856985,0.680347 -3.581655,1.309339 -3.832599,1.397765 -0.351048,0.123697 -0.456262,-1.026659 -0.456262,-4.988414 z M 68.101079,7.7318486 c 0.55131,-2.0120881 0.927428,-2.5765216 2.132002,-3.1994298 0.923887,-0.4777626 1.084206,-0.7732719 1.084206,-1.9984877 0,-1.0037486 0.195687,-1.54255141 0.64819,-1.78472487 1.074198,-0.57489114 1.906554,0.16981885 1.909181,1.70814037 0.0019,1.1098329 0.192537,1.4588696 1.069217,1.9576235 1.099389,0.625454 1.931173,1.9276592 2.351797,3.6818876 l 0.240682,1.0037764 h -4.905156 -4.905161 z"
       id="path1"
       sodipodi:nodetypes="cscssscsssscccccssccsccccscccccsssssssssssssssssssssssscccssssssssssscssssssssscccccssssssscsscccs" /></g></svg>
